<?xml version="1.0" standalone="no"?>
<!DOCTYPE svg PUBLIC "-//W3C//DTD SVG 20010904//EN"
 "http://www.w3.org/TR/2001/REC-SVG-20010904/DTD/svg10.dtd">
<svg version="1.0" xmlns="http://www.w3.org/2000/svg"
 width="16.000000pt" height="16.000000pt" viewBox="0 0 16.000000 16.000000"
 preserveAspectRatio="xMidYMid meet">
<metadata>
Created by potrace 1.11, written by Peter Selinger 2001-2013
</metadata>
<g transform="translate(0.000000,16.000000) scale(0.004558,-0.004558)"
fill="#000000" stroke="none">
<path d="M1776 3188 c5 -7 -1 -9 -38 -12 -7 -1 -16 -5 -20 -11 -5 -6 -8 -6 -8
2 0 6 -9 11 -20 10 -11 -1 -20 -4 -20 -7 0 -4 -14 -7 -30 -7 -20 0 -26 3 -18
9 7 4 8 8 3 8 -6 0 -16 -5 -21 -10 -6 -6 -29 -11 -52 -13 -23 -1 -42 -5 -42
-9 0 -5 -5 -8 -11 -8 -5 0 -7 6 -3 13 6 8 3 8 -9 -1 -9 -8 -21 -11 -27 -7 -5
3 -10 1 -10 -6 0 -7 -7 -4 -15 7 -12 15 -14 16 -9 2 6 -18 -8 -18 -57 -3 -11
4 -19 2 -19 -6 0 -9 -3 -9 -14 0 -9 7 -17 8 -20 2 -7 -11 -25 -9 -45 3 -10 6
-12 5 -7 -2 4 -7 3 -12 -3 -12 -5 0 -14 7 -19 16 -8 15 -10 15 -15 0 -4 -10
-12 -13 -23 -9 -11 4 -15 2 -11 -4 4 -7 -7 -10 -31 -9 -20 1 -40 -3 -44 -9 -5
-7 -14 -6 -29 3 -11 8 -18 9 -14 3 3 -6 3 -12 -2 -12 -4 -1 -21 -3 -36 -5 -16
-1 -36 -9 -45 -16 -12 -10 -14 -10 -8 0 4 6 3 12 -1 12 -5 0 -14 -10 -22 -21
-10 -17 -15 -19 -21 -8 -7 11 -10 10 -15 -3 -4 -10 -13 -14 -22 -11 -11 4 -14
2 -9 -5 7 -11 -21 -18 -48 -13 -5 1 -3 -6 4 -16 8 -10 10 -15 6 -11 -5 4 -16
2 -24 -5 -13 -10 -14 -9 -8 3 5 8 -3 3 -16 -12 -14 -16 -31 -28 -37 -28 -7 0
-10 -4 -7 -9 4 -5 0 -12 -6 -14 -10 -4 -10 -6 0 -6 9 -1 10 -6 4 -18 -8 -16
-8 -32 0 -75 2 -7 -3 -12 -10 -10 -8 1 -11 -2 -7 -8 3 -6 11 -7 17 -4 6 4 9 1
6 -7 -3 -8 -2 -26 3 -41 9 -31 1 -42 -18 -26 -11 8 -12 7 -7 -5 4 -11 0 -16
-13 -16 -24 0 -45 -5 -60 -14 -7 -5 -13 -5 -13 -2 0 4 -7 -1 -16 -9 -8 -9 -19
-14 -24 -11 -5 3 -10 1 -12 -4 -1 -5 -10 -11 -18 -13 -16 -3 -21 -7 -65 -43
-16 -14 -36 -25 -43 -25 -8 0 -10 -5 -6 -12 5 -8 2 -9 -10 -5 -9 4 -15 3 -12
-2 3 -4 -5 -18 -18 -30 -13 -12 -26 -19 -28 -14 -3 4 -4 3 -2 -3 3 -14 -50
-67 -58 -58 -3 3 -5 -3 -5 -13 1 -10 -4 -17 -11 -15 -8 1 -11 -2 -8 -7 4 -5
-4 -17 -16 -25 -12 -9 -19 -16 -15 -16 4 0 3 -9 -3 -20 -6 -11 -16 -17 -22
-14 -7 4 -8 3 -4 -4 9 -15 -12 -54 -24 -47 -6 4 -7 -1 -3 -11 4 -11 3 -15 -4
-11 -7 5 -9 -1 -5 -15 4 -17 2 -20 -13 -14 -14 5 -15 3 -8 -6 7 -9 7 -21 0
-38 -12 -30 -16 -124 -6 -163 6 -20 4 -26 -4 -21 -11 7 16 -26 53 -65 23 -23
83 -26 101 -5 10 13 10 16 1 10 -8 -5 -19 -1 -28 10 -9 11 -13 13 -9 7 4 -9 1
-11 -10 -7 -10 4 -15 14 -12 24 2 9 -1 17 -9 17 -7 0 -10 -5 -7 -11 3 -6 -6 0
-19 14 -18 18 -23 29 -15 38 7 9 6 11 -6 6 -12 -4 -15 -1 -12 15 2 12 0 19 -6
16 -5 -4 -9 3 -9 15 0 12 4 19 8 16 4 -2 6 11 4 31 -3 22 -1 33 5 30 6 -4 8 4
5 18 -2 15 0 25 7 25 7 0 9 5 6 10 -3 6 -1 10 5 10 6 0 8 5 5 10 -3 6 -1 10 5
10 6 0 8 5 5 10 -3 6 -1 10 5 10 6 0 9 4 5 9 -3 6 2 14 11 19 9 5 15 12 15 15
-2 17 1 24 20 47 11 14 17 19 13 11 -5 -9 -3 -12 5 -7 6 4 9 11 6 15 -7 12 41
72 50 63 5 -4 6 -2 3 3 -3 6 7 23 23 38 16 16 29 25 29 20 0 -4 7 3 16 15 13
20 18 21 32 10 15 -11 15 -11 4 4 -11 14 -10 17 7 23 12 3 21 11 21 16 0 6 4
8 9 5 5 -3 11 1 15 9 3 8 10 15 16 15 6 0 8 -5 4 -12 -4 -7 -3 -8 5 -4 6 4 9
12 6 17 -4 5 1 9 9 9 9 0 16 5 16 11 0 6 9 8 23 4 15 -4 18 -4 8 3 -10 7 -4
13 25 23 22 7 45 12 52 11 6 -2 12 1 12 6 0 5 9 12 20 15 14 4 20 0 20 -11 0
-14 2 -14 9 -3 14 21 21 -9 8 -34 -9 -18 -9 -19 6 -6 20 16 23 1 5 -18 -11
-11 -10 -12 1 -6 10 6 11 2 5 -16 -4 -13 -8 -32 -8 -41 0 -10 -6 -18 -14 -18
-7 0 -10 -4 -7 -10 3 -5 1 -10 -5 -10 -6 0 -9 -4 -5 -9 3 -5 1 -12 -5 -16 -5
-3 -10 -1 -10 4 0 6 -5 11 -12 11 -6 0 -8 -3 -5 -6 7 -7 -41 -104 -57 -116 -6
-4 -15 -4 -21 0 -5 3 -4 -1 2 -10 11 -12 9 -18 -7 -33 -12 -10 -18 -25 -16
-32 3 -7 1 -13 -5 -13 -6 0 -8 -4 -4 -9 3 -5 1 -12 -4 -15 -5 -4 -11 -1 -14 6
-2 7 -2 2 0 -11 3 -19 1 -22 -14 -17 -9 4 -14 4 -10 0 4 -4 1 -14 -6 -23 -11
-14 -10 -14 6 -2 25 19 21 6 -5 -20 -13 -12 -18 -19 -11 -15 19 10 -23 -76
-44 -93 -14 -11 -15 -13 -2 -8 15 5 15 2 6 -24 -6 -16 -15 -29 -19 -29 -4 0
-4 -7 -1 -17 4 -10 2 -14 -4 -10 -7 5 -9 0 -6 -13 3 -12 -2 -29 -11 -39 -9
-10 -16 -22 -15 -27 4 -25 -2 -36 -18 -30 -16 6 -16 5 0 -8 11 -8 14 -17 8
-20 -6 -4 -7 -14 -4 -23 5 -12 3 -14 -7 -8 -10 6 -12 4 -7 -8 4 -10 1 -17 -6
-17 -8 0 -7 -4 3 -10 9 -6 11 -13 5 -17 -5 -5 -11 -21 -13 -38 -1 -16 -6 -37
-9 -45 -8 -20 -10 -27 -12 -46 0 -8 -5 -13 -9 -10 -5 3 -9 -1 -9 -9 0 -8 4
-12 9 -9 4 3 5 -2 2 -10 -3 -9 -11 -13 -16 -10 -6 4 -5 -3 1 -15 9 -16 9 -21
0 -21 -7 0 -9 -3 -6 -7 4 -3 1 -13 -6 -21 -9 -13 -9 -14 1 -8 19 12 14 -1 -10
-24 -13 -12 -16 -19 -8 -15 11 4 16 -2 18 -20 1 -18 -3 -25 -16 -26 -11 0 -12
-2 -4 -6 10 -4 9 -10 -5 -26 -10 -11 -13 -17 -6 -14 22 14 23 -12 1 -29 -17
-12 -18 -15 -5 -10 17 5 18 1 14 -49 -3 -30 -10 -61 -16 -68 -6 -8 -8 -17 -4
-21 12 -12 15 -58 3 -51 -5 3 -10 1 -10 -4 0 -6 5 -11 10 -11 6 0 10 -7 10
-16 0 -8 -4 -12 -10 -9 -5 3 -10 1 -10 -4 0 -6 3 -11 8 -11 4 0 8 -16 9 -35 1
-20 -2 -33 -8 -30 -5 4 -9 1 -9 -4 0 -6 4 -11 9 -11 5 0 8 -27 7 -59 -1 -36 2
-57 8 -54 5 4 7 -3 4 -15 -4 -12 -1 -22 4 -22 6 0 4 -8 -3 -17 -8 -9 -9 -14
-3 -10 7 4 17 -9 27 -33 14 -35 13 -38 -2 -34 -9 3 -6 -1 7 -7 13 -7 21 -18
18 -26 -3 -8 -2 -11 3 -8 5 3 12 -4 16 -15 3 -11 11 -20 16 -20 5 0 9 -5 9
-11 0 -5 -5 -7 -12 -3 -7 4 -8 3 -4 -5 4 -6 12 -9 17 -6 5 4 9 1 9 -5 0 -6 11
-15 25 -22 13 -6 22 -14 20 -18 -10 -15 27 -19 41 -5 14 13 14 15 -1 15 -9 0
-14 4 -11 8 3 5 -6 20 -19 34 -13 14 -21 29 -18 32 4 3 -3 6 -14 6 -21 0 -48
44 -38 61 3 5 -1 6 -9 3 -11 -4 -16 0 -17 12 -2 25 -2 26 7 49 l7 20 -17 -20
c-15 -17 -17 -17 -12 -2 3 10 0 17 -7 17 -8 0 -6 4 3 10 10 6 11 10 3 10 -7 0
-13 7 -13 16 0 8 5 12 11 9 6 -4 5 3 -3 14 -11 18 -11 23 2 31 13 8 12 10 -2
10 -10 0 -18 5 -18 11 0 5 5 7 12 3 7 -4 8 -3 4 5 -4 6 -2 19 6 28 9 12 9 15
1 9 -17 -9 -17 6 -1 23 10 11 10 13 1 7 -8 -4 -13 -1 -13 8 0 8 6 17 13 19 9
4 8 6 -2 6 -11 1 -11 4 0 18 12 14 12 16 0 9 -9 -6 -12 -5 -9 5 3 8 11 13 17
11 8 -1 9 2 5 10 -19 30 -11 104 9 91 8 -4 8 -1 -1 9 -9 11 -10 23 -2 42 5 14
7 26 4 26 -4 0 0 8 7 17 12 14 12 15 1 9 -12 -7 -12 -4 -1 15 7 13 12 25 11
26 -4 8 12 63 18 63 4 0 6 12 4 26 -1 14 0 23 4 20 3 -4 7 -19 9 -34 1 -15 5
-45 8 -67 3 -22 7 -51 8 -65 2 -14 6 -36 11 -49 6 -16 4 -26 -5 -32 -11 -7
-10 -9 3 -9 11 0 16 -6 13 -20 -2 -11 1 -20 7 -20 6 0 5 -7 -3 -17 -10 -11
-10 -14 -2 -9 7 4 13 6 13 4 0 -2 4 -18 9 -36 7 -22 6 -30 -1 -26 -5 4 -2 -5
7 -19 9 -15 14 -31 10 -37 -3 -5 -3 -16 2 -22 11 -19 14 -50 4 -44 -13 8 -8
-19 7 -37 7 -8 11 -27 8 -41 -3 -14 -1 -26 3 -26 6 0 8 -9 13 -65 1 -14 6 -25
11 -25 5 0 3 -8 -4 -17 -10 -11 -10 -14 -1 -9 8 5 12 0 12 -13 0 -12 6 -21 13
-21 9 0 9 -2 -1 -9 -11 -7 -11 -9 2 -14 9 -4 13 -13 10 -22 -4 -8 -1 -15 6
-15 7 0 10 -6 7 -14 -3 -8 1 -20 9 -27 11 -9 11 -15 3 -25 -6 -8 -16 -11 -22
-7 -6 4 -23 7 -37 7 -14 1 -31 5 -39 10 -10 6 -12 6 -7 -2 4 -7 3 -12 -2 -12
-5 0 -7 -11 -4 -25 3 -17 0 -25 -9 -25 -11 0 -11 -2 1 -10 13 -8 13 -10 -2
-10 -9 0 -19 -6 -21 -12 -4 -10 -6 -9 -6 1 -1 11 -4 11 -16 1 -12 -10 -15 -10
-15 1 0 9 -3 9 -12 -3 -15 -17 -53 -33 -43 -18 3 6 1 10 -4 10 -6 0 -11 -7
-11 -16 0 -12 -7 -15 -24 -12 -18 4 -23 1 -19 -9 3 -8 2 -13 -3 -12 -13 3 -46
-12 -68 -30 -11 -9 -16 -11 -13 -4 4 6 3 15 -3 18 -6 4 -9 3 -8 -2 5 -14 -30
-55 -41 -48 -7 3 -11 3 -10 -2 4 -21 -2 -43 -12 -43 -5 0 -7 6 -3 13 4 7 3 8
-2 4 -5 -5 -9 -14 -10 -20 0 -7 -2 -20 -2 -30 -1 -11 -7 -15 -14 -11 -8 5 -9
2 -5 -9 4 -10 1 -17 -6 -17 -9 0 -9 -2 0 -8 15 -9 6 -52 -11 -52 -29 -1 23
-20 54 -20 35 0 36 1 37 42 1 22 6 44 11 47 4 3 11 14 15 24 4 10 11 15 17 12
6 -4 7 1 3 11 -5 13 -3 16 10 11 10 -4 14 -2 11 6 -2 7 5 18 17 25 17 11 20
11 13 0 -6 -10 -5 -11 8 -1 8 7 19 9 23 5 5 -4 5 -2 2 4 -8 13 20 27 34 18 5
-3 9 -2 8 3 -3 20 2 27 11 13 8 -13 10 -12 10 4 0 16 2 16 16 6 12 -11 15 -11
12 1 -2 9 6 14 22 14 14 0 30 3 36 7 13 8 41 5 51 -7 4 -4 1 -5 -7 -1 -10 5
-9 2 2 -7 14 -11 15 -16 5 -27 -8 -8 -8 -11 -1 -7 15 9 27 -18 28 -65 1 -25 8
-43 21 -52 20 -15 20 -15 0 -16 -17 0 -17 -2 -5 -10 13 -8 12 -12 -4 -27 -14
-13 -17 -13 -10 -3 5 9 1 7 -10 -5 l-18 -20 1232 -3 c679 -1 1236 1 1239 4 3
3 -2 12 -13 19 -10 8 -15 19 -10 26 4 8 3 10 -4 5 -7 -4 -12 -2 -12 4 0 6 -5
8 -12 4 -8 -5 -7 0 2 11 9 11 10 16 3 11 -8 -4 -13 -1 -13 9 0 8 7 18 15 21 8
4 12 11 8 17 -4 6 0 8 10 4 9 -3 19 -1 23 5 4 7 3 8 -4 4 -7 -4 -12 -2 -12 4
0 7 9 14 20 17 11 3 18 9 15 12 -2 4 2 8 10 8 8 0 12 -4 9 -9 -3 -4 0 -8 5 -8
28 0 56 -24 46 -40 -4 -6 1 -7 11 -3 12 4 15 3 10 -5 -5 -8 1 -12 16 -12 18 0
20 -2 8 -10 -13 -8 -12 -10 3 -10 25 0 66 -44 63 -66 -2 -11 -1 -13 1 -7 6 17
24 17 21 1 -2 -9 18 -14 70 -16 45 -2 72 1 72 8 0 5 -5 10 -11 10 -6 0 -8 7
-5 16 6 15 4 15 -11 3 -10 -7 -15 -10 -12 -6 4 4 -6 21 -22 37 -19 19 -27 35
-23 47 4 14 4 15 -4 4 -12 -17 -35 -4 -28 15 3 8 2 13 -2 13 -22 -4 -42 2 -37
11 3 5 -1 10 -9 10 -9 0 -16 7 -16 16 0 8 -4 12 -10 9 -5 -3 -10 -1 -10 5 0 6
-4 9 -9 6 -5 -3 -11 1 -15 9 -3 8 -13 15 -22 15 -10 0 -14 5 -11 15 4 8 1 17
-5 21 -7 4 -8 3 -4 -4 4 -7 2 -12 -3 -12 -16 0 -13 16 4 34 8 8 15 20 15 26 0
6 5 8 13 4 8 -5 8 -2 -2 9 -7 9 -9 17 -3 17 5 0 10 6 9 12 -1 35 4 59 11 54 5
-3 9 1 9 8 0 9 -9 13 -24 10 -12 -2 -23 0 -23 5 0 6 -7 7 -17 4 -12 -5 -14 -3
-7 8 12 20 14 40 3 33 -5 -3 -7 -10 -4 -15 4 -5 1 -9 -4 -9 -16 0 -13 16 4 34
8 8 11 17 7 20 -5 3 -7 21 -6 40 2 20 -1 38 -6 41 -6 3 -6 15 0 30 6 15 6 27
-1 30 -5 4 -8 19 -6 33 2 15 0 37 -4 50 -5 13 -5 22 1 22 6 0 6 9 0 24 -7 20
-6 26 8 29 15 4 15 5 -1 6 -10 0 -15 6 -12 11 3 6 0 10 -7 10 -9 0 -9 3 2 10
10 6 11 10 3 10 -7 0 -13 5 -13 11 0 5 4 8 8 5 5 -3 9 1 9 9 0 8 -4 12 -9 9
-13 -8 -9 20 5 36 10 12 9 12 -5 1 -11 -8 -18 -9 -18 -3 0 6 -3 18 -7 28 -5
13 -3 15 8 10 10 -5 10 -4 -1 6 -9 7 -15 23 -14 35 1 13 -4 23 -9 23 -7 0 -7
4 1 12 9 9 7 15 -6 25 -11 9 -11 12 -2 7 10 -5 8 1 -5 16 l-20 23 20 -6 c19
-7 19 -6 3 7 -21 15 -24 30 -5 21 6 -4 4 0 -7 9 -10 8 -16 21 -13 28 2 7 -3
24 -12 38 -10 14 -17 34 -17 45 1 11 -2 22 -5 25 -3 3 -13 19 -21 37 -12 23
-13 34 -4 44 8 9 8 10 -1 5 -12 -6 -18 5 -14 27 0 4 -4 7 -10 7 -8 0 -7 5 1
15 7 9 10 18 6 22 -3 3 -6 0 -6 -8 0 -12 -2 -12 -9 0 -6 9 -6 22 0 32 6 13 4
22 -7 34 -15 14 -14 15 9 11 17 -3 27 1 31 11 4 9 13 13 22 9 10 -4 13 -2 8 6
-5 8 -2 9 10 5 10 -4 15 -3 11 3 -3 5 8 24 25 41 16 18 30 36 30 41 0 5 5 6
12 2 6 -4 8 -3 4 4 -3 6 -2 14 4 17 8 5 7 11 -1 21 -8 10 -8 14 0 14 6 0 11 5
11 11 0 5 -4 8 -9 4 -5 -3 -12 -1 -16 5 -3 5 -1 10 6 10 10 0 10 3 2 11 -6 6
-9 18 -6 25 4 12 8 12 22 2 11 -8 10 -5 -3 10 -11 12 -14 22 -8 22 7 0 12 4
12 10 0 5 -8 7 -17 3 -10 -3 -15 -3 -11 2 4 4 3 17 -3 28 -8 14 -8 18 0 13 16
-10 14 0 -4 18 -8 8 -16 26 -17 40 -1 14 -5 26 -9 26 -4 0 -10 7 -13 16 -3 8
-2 12 3 9 5 -3 13 0 17 6 4 7 3 10 -2 7 -5 -3 -17 3 -26 13 -12 12 -13 19 -5
23 7 2 3 5 -8 5 -17 1 -17 3 -5 11 13 8 12 10 -3 10 -10 0 -16 4 -12 9 3 5 1
12 -5 16 -15 9 -12 28 3 19 7 -4 9 -3 4 2 -5 5 -13 10 -18 10 -5 1 -12 2 -15
3 -4 0 -1 8 6 16 11 13 10 14 -3 10 -10 -4 -17 1 -22 14 -3 12 -11 21 -16 21
-5 0 -9 9 -9 19 0 11 -9 26 -21 34 -15 11 -17 16 -7 20 9 4 8 6 -3 6 -9 1 -20
8 -23 17 -4 10 -2 13 7 8 6 -3 0 4 -14 17 -14 13 -32 33 -40 43 -12 17 -12 19
1 11 12 -7 13 -6 3 7 -7 8 -9 19 -5 23 4 5 1 5 -5 1 -8 -4 -13 -1 -13 8 0 8
-5 16 -10 18 -6 2 -12 13 -13 26 -1 13 -6 21 -14 18 -6 -3 -15 4 -18 15 -4 10
-11 19 -16 19 -6 0 -8 4 -5 9 3 5 -5 17 -19 27 -13 10 -22 21 -19 26 3 4 1 8
-4 8 -10 0 -27 48 -23 65 2 5 -1 7 -5 3 -9 -10 -36 11 -28 23 3 5 -3 6 -12 2
-12 -4 -15 -2 -12 8 3 8 -6 22 -19 32 -13 10 -23 25 -23 33 0 8 -7 14 -16 14
-8 0 -12 5 -9 10 3 6 -1 10 -10 10 -12 0 -15 6 -10 23 4 15 3 18 -3 9 -7 -11
-12 -10 -26 3 -9 9 -16 13 -17 8 0 -4 -4 2 -10 15 -5 13 -13 20 -19 17 -6 -3
-13 1 -16 9 -3 9 -10 13 -15 10 -5 -3 -9 2 -9 10 0 9 -3 15 -7 14 -13 -3 -83
25 -83 34 0 4 -12 8 -26 8 -15 0 -23 4 -19 11 4 6 0 9 -11 7 -11 -2 -18 2 -16
10 1 6 -2 12 -8 12 -5 0 -10 -4 -10 -10 0 -18 -19 -10 -25 11 -4 12 -10 17
-14 12 -3 -5 -22 -8 -41 -7 -19 2 -52 4 -73 4 -21 1 -35 5 -32 11 4 5 11 6 17
3 7 -4 8 -2 4 5 -5 8 -12 9 -20 2 -14 -12 -127 -11 -120 1 3 4 0 8 -5 8 -6 0
-11 -5 -11 -11 0 -8 -6 -7 -17 2 -9 8 -14 9 -10 3 4 -7 -2 -11 -18 -11 -15 0
-22 4 -18 11 3 6 0 6 -8 -1 -15 -15 -33 -18 -25 -5 3 5 -1 9 -9 9 -8 0 -12 -4
-9 -9z m1149 -1467 c3 -5 1 -12 -5 -16 -5 -3 -10 1 -10 9 0 18 6 21 15 7z m11
-238 c-2 -10 3 -24 11 -31 7 -8 11 -18 8 -23 -4 -5 -2 -9 4 -9 5 0 8 -9 6 -20
-2 -11 1 -20 7 -20 6 0 8 -3 5 -6 -3 -4 -2 -16 4 -27 8 -14 8 -18 0 -13 -6 4
-11 2 -11 -3 0 -6 5 -11 11 -11 8 0 8 -4 0 -14 -9 -11 -9 -16 0 -22 8 -5 9 -3
4 6 -5 8 -4 11 3 7 11 -8 11 -25 -2 -45 -4 -7 -4 -12 1 -11 20 3 27 -2 13 -11
-13 -9 -13 -10 0 -10 13 0 13 -1 0 -10 -10 -6 -11 -10 -2 -10 6 0 12 -7 12
-16 0 -8 -4 -12 -10 -9 -15 9 -12 -4 5 -21 18 -19 20 -38 3 -28 -10 5 -10 4
-1 -6 6 -7 9 -19 6 -28 -4 -10 -2 -13 5 -8 7 4 12 3 12 -3 0 -5 -4 -13 -10
-16 -5 -3 -10 -12 -10 -18 0 -7 4 -6 11 3 9 12 10 11 6 -6 -2 -12 0 -29 6 -39
7 -14 7 -16 -4 -10 -11 6 -12 5 -1 -6 15 -16 16 -33 0 -23 -7 5 -8 3 -3 -7 17
-26 12 -77 -8 -83 -15 -4 -16 -2 -6 10 8 10 8 14 0 14 -6 0 -10 3 -9 8 0 4 -2
14 -5 22 -20 45 -35 99 -30 104 4 3 1 6 -6 6 -8 0 -11 8 -8 20 3 11 1 20 -5
20 -6 0 -8 11 -6 25 3 13 1 22 -3 19 -8 -5 -14 17 -10 39 0 4 -4 7 -10 7 -8 0
-8 5 1 15 10 12 10 15 -1 15 -11 0 -11 2 1 10 12 8 12 10 1 10 -11 0 -9 5 5
21 14 15 15 20 4 17 -10 -2 -14 4 -13 17 1 11 4 39 5 63 2 24 7 41 13 38 6 -2
11 6 12 18 0 11 -1 15 -4 9 -11 -28 -18 -10 -17 40 2 56 2 57 8 57 2 0 3 -8 2
-17z m-2293 -537 c7 4 9 4 5 -1 -4 -4 -3 -14 3 -22 6 -7 8 -13 4 -13 -4 0 2
-8 14 -17 26 -22 34 -68 16 -87 -9 -8 -10 -17 -4 -23 6 -6 5 -10 -5 -10 -7 0
-13 7 -11 16 1 9 -3 19 -8 23 -6 3 -12 15 -13 25 -2 10 -6 29 -8 43 -8 40 -15
97 -10 77 3 -10 11 -14 17 -11z m2383 -101 c1 -14 -2 -23 -6 -20 -5 3 -10 -1
-13 -7 -2 -7 -8 -9 -13 -5 -5 4 -2 12 5 16 7 5 11 13 7 19 -3 6 0 13 6 15 7 3
13 6 13 6 0 1 1 -10 1 -24z m-6 -71 c-4 -18 -5 -35 -2 -38 2 -3 -3 -17 -12
-31 -13 -20 -21 -24 -30 -16 -10 8 -18 6 -30 -8 -10 -11 -25 -19 -34 -19 -10
0 -29 -2 -44 -5 -29 -6 -47 7 -27 19 6 3 16 0 21 -7 7 -10 8 -8 5 8 -3 13 2
28 11 35 13 11 15 11 8 -2 -4 -8 1 -4 12 9 10 13 24 21 29 18 6 -4 10 1 9 11
0 9 4 16 11 15 7 -2 10 4 7 12 -4 10 0 15 11 15 9 0 14 4 11 8 -3 5 8 9 23 9
27 0 28 -2 21 -33z m-50 -94 c0 -5 -5 -10 -11 -10 -5 0 -7 5 -4 10 3 6 8 10
11 10 2 0 4 -4 4 -10z m-765 -163 c10 13 14 13 20 3 5 -9 4 -11 -3 -6 -7 4
-12 3 -12 -3 0 -5 6 -12 13 -15 6 -3 0 -3 -15 -1 -17 2 -28 -1 -29 -8 0 -9 -2
-9 -5 0 -4 9 -13 9 -31 2 -20 -7 -28 -6 -35 3 -11 19 -10 25 7 25 9 0 14 -6
11 -13 -3 -8 0 -11 9 -7 8 3 12 9 9 14 -3 5 2 6 10 3 10 -4 16 -1 17 7 0 10 3
9 12 -3 10 -15 12 -15 22 -1z m-115 -8 c0 -5 0 -11 0 -14 0 -3 -3 -5 -7 -4 -5
1 -7 6 -5 13 1 6 -5 2 -14 -9 -13 -15 -15 -16 -11 -3 3 9 1 19 -6 21 -7 2 0 4
16 4 15 0 27 -3 27 -8z"/>
<path d="M2933 1435 c0 -8 4 -12 9 -9 5 3 6 10 3 15 -9 13 -12 11 -12 -6z"/>
<path d="M2995 970 c3 -5 8 -10 11 -10 2 0 4 5 4 10 0 6 -5 10 -11 10 -5 0 -7
-4 -4 -10z"/>
<path d="M660 870 c-9 -6 -10 -10 -3 -10 6 0 15 5 18 10 8 12 4 12 -15 0z"/>
<path d="M670 835 c0 -8 4 -15 8 -15 5 0 9 7 9 15 0 8 -4 15 -9 15 -4 0 -8 -7
-8 -15z"/>
<path d="M2830 2531 c0 -6 4 -13 10 -16 6 -3 7 1 4 9 -7 18 -14 21 -14 7z"/>
<path d="M533 2195 c0 -8 4 -12 9 -9 5 3 6 10 3 15 -9 13 -12 11 -12 -6z"/>
<path d="M475 2010 c-3 -5 -1 -10 4 -10 6 0 11 5 11 10 0 6 -2 10 -4 10 -3 0
-8 -4 -11 -10z"/>
<path d="M413 1795 c0 -8 4 -12 9 -9 5 3 6 10 3 15 -9 13 -12 11 -12 -6z"/>
<path d="M405 1750 c-3 -5 -1 -10 4 -10 6 0 11 5 11 10 0 6 -2 10 -4 10 -3 0
-8 -4 -11 -10z"/>
<path d="M460 1471 c0 -6 4 -13 10 -16 6 -3 7 1 4 9 -7 18 -14 21 -14 7z"/>
<path d="M446 1432 c-3 -5 1 -9 9 -9 8 0 15 4 15 9 0 4 -4 8 -9 8 -6 0 -12 -4
-15 -8z"/>
<path d="M335 1330 c3 -5 8 -10 11 -10 2 0 4 5 4 10 0 6 -5 10 -11 10 -5 0 -7
-4 -4 -10z"/>
<path d="M355 881 c-3 -5 -2 -12 3 -15 5 -3 9 1 9 9 0 17 -3 19 -12 6z"/>
<path d="M643 665 c0 -8 4 -12 9 -9 5 3 6 10 3 15 -9 13 -12 11 -12 -6z"/>
<path d="M535 490 c-3 -5 -1 -10 4 -10 6 0 11 5 11 10 0 6 -2 10 -4 10 -3 0
-8 -4 -11 -10z"/>
<path d="M3340 336 c0 -2 8 -10 18 -17 15 -13 16 -12 3 4 -13 16 -21 21 -21
13z"/>
</g>
</svg>
